# xmcd
#
# Track frame offsets:
#	150
#	14244
#	31242
#	46122
#	57451
#	76079
#	85750
#	118279
#	130571
#	152651
#	166341
#	184493
#	200898
#	219577
#	231415
#	251284
#	278185
#	291050
#
# Disc length: 4004 seconds
#
# Revision: 0
# Processed by: cddbd v1.5.2PL0 Copyright (c) Steve Scherf et al.
# Submitted via: EasyCDDAExtractor 10.2.0.1
#
DISCID=030fa212
DTITLE=Various Artist - Puistoblues Aged and Mellow
DYEAR=2007
DGENRE=
TTITLE0=Chicago Overcoat - Cool Disposition
TTITLE1=Eddie Boyd - Eddie's Instrumental
TTITLE2=J.Karjalainen - Hoopon joulu
TTITLE3=Super Blues Band - I need you so bad
TTITLE4=Jo' Buddy and Down Home King III - I wonder, how long?
TTITLE5=Dave Lindholm - She likes jazz
TTITLE6=Heikki Silvennoinen - Blues blue sky
TTITLE7=Helge Tallqvist and Groovy Eyes with Sidekick Johnny - Soul feet
TTITLE8=Dr. Helander and His Medicine Men - Freedom to freak out
TTITLE9=Eero Raittinen and Jarkka Rissanen - Steady rolling man
TTITLE10=Honey B. and T-Bones - Hot dog man
TTITLE11=Erja Lyytinen - It hurts me too
TTITLE12=Micke and Lefty - Mississippi
TTITLE13=Rock'n'Roll Band - California rag
TTITLE14=Pepe Ahlqvist UMO Jazz Orchestra - Don't stare at me
TTITLE15=J. Leino and the Blues Guys - Cold cold feeling
TTITLE16=Albert Järvinen - Patchy Moss
TTITLE17=Kapteeni Nemo - Kultainen keskitie
EXTD=
EXTT0=
EXTT1=
EXTT2=
EXTT3=
EXTT4=
EXTT5=
EXTT6=
EXTT7=
EXTT8=
EXTT9=
EXTT10=
EXTT11=
EXTT12=
EXTT13=
EXTT14=
EXTT15=
EXTT16=
EXTT17=
PLAYORDER=
